<?xml version="1.0" encoding="UTF-8" standalone="no"?>
<svg
   xmlns:dc="http://purl.org/dc/elements/1.1/"
   xmlns:cc="http://creativecommons.org/ns#"
   xmlns:rdf="http://www.w3.org/1999/02/22-rdf-syntax-ns#"
   xmlns:svg="http://www.w3.org/2000/svg"
   xmlns="http://www.w3.org/2000/svg"
   viewBox="0 0 1934 562.32269"
   height="562.32269"
   width="1934"
   xml:space="preserve"
   id="svg2"
   version="1.1"><metadata
     id="metadata8"><rdf:RDF><cc:Work
         rdf:about=""><dc:format>image/svg+xml</dc:format><dc:type
           rdf:resource="http://purl.org/dc/dcmitype/StillImage" /></cc:Work></rdf:RDF></metadata><defs
     id="defs6"><clipPath
       id="clipPath18"
       clipPathUnits="userSpaceOnUse"><path
         id="path16"
         d="M 0,421.742 H 1450.5 V 0 H 0 Z" /></clipPath></defs><g
     transform="matrix(1.3333333,0,0,-1.3333333,0,562.32267)"
     id="g10"><g
       id="g12"><g
         clip-path="url(#clipPath18)"
         id="g14"><g
           transform="translate(1385.9648,150.7314)"
           id="g20"><path
             id="path22"
             style="fill:#231f20;fill-opacity:1;fill-rule:evenodd;stroke:none"
             d="m 0,0 h 19.93 v 93.121 h 29.416 l 5.134,16.275 H -31.938 V 93.121 l 31.938,0 z m -62.138,116.357 c 5.483,0 10.096,4.526 10.096,10.096 0,5.656 -4.613,10.356 -10.096,10.356 -5.656,0 -10.182,-4.7 -10.182,-10.356 0,-5.57 4.526,-10.096 10.182,-10.096 m -31.764,0 c 5.656,0 10.355,4.526 10.355,10.096 0,5.656 -4.699,10.356 -10.355,10.356 -5.483,0 -10.096,-4.7 -10.096,-10.356 0,-5.57 4.613,-10.096 10.096,-10.096 m 2.349,-72.668 h 27.067 l -7.66,21.67 c -2.958,8.355 -4.438,13.315 -5.482,16.971 h -0.261 c -1.045,-3.83 -2.699,-8.616 -5.658,-17.145 z M -128.104,0 -85.722,109.917 h 15.23 L -26.629,0 H -47.691 L -58.309,27.415 H -97.383 L -107.654,0 Z m -46.995,0 h 19.929 v 93.121 h 29.415 l 5.135,16.275 h -86.332 V 93.121 h 31.853 z m -67.448,0 h 19.93 v 109.396 h -19.93 z m -93.814,7.833 c 8.267,-5.83 20.276,-9.485 33.069,-9.485 22.366,0 38.988,11.922 38.988,31.416 0,34.638 -47.342,31.94 -47.342,52.043 0,8.79 7.311,11.836 14.969,11.836 8.614,0 17.405,-2.524 26.108,-7.049 v 18.276 c -6.006,3.046 -15.492,5.483 -26.806,5.483 -22.714,0 -35.507,-14.099 -35.507,-30.2 0,-33.331 47.343,-30.633 47.343,-52.042 0,-9.487 -9.137,-12.967 -18.274,-12.967 -10.009,0 -18.277,3.48 -24.804,7.919 z m -72.583,51.173 v 34.115 h 9.138 c 5.918,0 9.574,-1.306 12.271,-3.133 4.786,-2.872 7.311,-8.007 7.311,-13.838 0,-6.788 -2.96,-11.748 -7.66,-14.446 -3.305,-1.828 -6.962,-2.698 -12.096,-2.698 z M -428.874,0 h 19.93 v 42.731 h 9.399 c 2.697,-0.695 6.701,-5.222 12.01,-14.968 L -371.783,0 h 22.975 l -18.275,31.94 c -5.832,9.922 -10.356,15.926 -13.664,17.753 v 0.349 c 12.618,3.916 21.409,13.489 21.409,28.11 0,11.14 -4.613,21.235 -16.274,26.718 -5.743,2.872 -13.141,4.526 -23.41,4.526 h -29.852 z m -83.372,0 h 60.572 v 16.275 h -40.642 v 31.418 h 34.986 v 16.186 h -34.986 v 29.242 h 35.159 l 5.308,16.275 h -60.397 z m -75.279,-0.695 h 16.1 l 44.733,110.091 h -21.67 l -22.714,-59.267 c -3.482,-8.789 -6.005,-16.101 -8.182,-22.366 h -0.26 c -2.35,6.44 -4.875,13.75 -8.007,22.279 l -22.888,59.354 H -632.17 Z M -666.546,0 h 19.843 v 109.396 h -19.843 z m -125.233,0 h 19.929 v 62.052 c 0,6.092 0,12.445 -0.261,16.97 h 0.261 c 3.655,-5.221 7.484,-10.704 12.358,-16.796 L -711.191,0 h 18.276 V 109.396 H -713.02 V 51.174 c 0,-6.005 0,-12.62 0.349,-18.45 h -0.349 c -3.306,4.96 -7.309,10.443 -12.27,16.969 l -46.734,59.703 h -19.755 z m -71.102,-1.652 c 20.103,0 34.463,6.962 41.251,21.06 2.785,5.656 4.09,12.968 4.09,21.496 v 68.492 h -19.929 V 42.383 c 0,-6.004 -0.957,-10.965 -2.959,-14.968 -3.829,-7.832 -11.488,-12.271 -22.453,-12.271 -10.966,0 -18.537,4.439 -22.366,12.271 -2.002,4.003 -3.046,8.964 -3.046,14.795 v 67.186 h -19.93 V 40.904 c 0,-8.355 1.393,-15.665 4.178,-21.321 6.614,-14.273 20.973,-21.235 41.164,-21.235" /></g><g
           transform="translate(898.2617,7.3975)"
           id="g24"><path
             id="path26"
             style="fill:#231f20;fill-opacity:1;fill-rule:evenodd;stroke:none"
             d="m 0,0 h 19.929 v 62.138 c 0,6.178 0,12.444 -0.261,16.971 h 0.261 C 23.583,73.974 27.413,68.491 32.287,62.313 L 80.586,0 H 98.863 V 109.481 H 78.759 V 51.173 c 0,-6.005 0,-12.62 0.348,-18.449 h -0.348 c -3.307,4.96 -7.31,10.442 -12.271,16.968 L 19.841,109.481 H 0 Z m -83.373,0 h 60.658 v 16.274 h -40.73 v 31.417 h 35.073 v 16.275 h -35.073 v 29.24 h 35.247 l 5.309,16.275 h -60.484 z m -25.238,53.174 h -20.104 V 18.45 c -4.264,-2.002 -10.966,-3.307 -18.275,-3.307 -23.586,0 -37.249,15.404 -37.249,38.989 0,23.322 13.838,39.597 40.294,39.597 11.75,0 21.583,-3.046 30.199,-7.311 v 18.537 c -8.268,3.047 -18.973,5.484 -31.678,5.484 -36.379,0 -60.05,-24.369 -60.05,-57.614 0,-31.416 21.235,-54.478 57.003,-54.478 15.317,0 29.939,3.829 39.86,8.789 z M -284.233,0 h 60.657 v 16.274 h -40.729 v 31.417 h 35.073 v 16.275 h -35.073 v 29.24 h 35.247 l 5.309,16.275 h -60.484 z m -46.56,0 h 20.016 v 109.481 h -20.016 z m -93.817,7.832 c 8.355,-5.83 20.277,-9.485 33.07,-9.485 22.454,0 38.989,11.922 38.989,31.416 0,34.724 -47.256,32.026 -47.256,52.131 0,8.789 7.224,11.835 14.882,11.835 8.703,0 17.492,-2.523 26.108,-7.049 v 18.275 c -6.005,3.047 -15.491,5.484 -26.717,5.484 -22.802,0 -35.595,-14.1 -35.595,-30.199 0,-33.42 47.343,-30.721 47.343,-52.13 0,-9.487 -9.138,-12.967 -18.275,-12.967 -9.921,0 -18.276,3.48 -24.716,7.92 z" /></g><g
           transform="translate(12.752,260.127)"
           id="g28"><path
             id="path30"
             style="fill:#2154ac;fill-opacity:1;fill-rule:evenodd;stroke:none"
             d="m 0,0 h 150.993 v -151.777 c 0,-60.224 71.363,-39.859 71.363,0 V 12.097 L 192.68,-10.183 191.722,72.32 298.245,150.993 403.897,72.32 v -82.503 l -30.634,23.15 V -252.729 H 222.356 v 20.364 C 161.175,-272.224 0,-266.654 0,-131.412 Z" /></g></g></g></g></svg>